<svg xmlns="http://www.w3.org/2000/svg" xmlns:xlink="http://www.w3.org/1999/xlink" version="1.1" width="1000" height="1000" viewBox="0 0 1000 1000" xml:space="preserve">
<desc>Created with Fabric.js 3.5.0</desc>
<defs>
</defs>
<rect x="0" y="0" width="100%" height="100%" fill="#ffffff"/>
<g transform="matrix(0.1407 0 0 0.13 81.4737 921.2581)" id="688656">
<g style="" vector-effect="non-scaling-stroke">
		<g transform="matrix(1 0 0 1 -94.1563 94.6851)">
<path style="stroke: none; stroke-width: 1; stroke-dasharray: none; stroke-linecap: butt; stroke-dashoffset: 0; stroke-linejoin: miter; stroke-miterlimit: 4; is-custom-font: none; font-file-url: none; fill: rgb(110,154,255); fill-rule: nonzero; opacity: 1;" transform=" translate(58.1563, -160.6851)" d="M 0 0 C 3.36927469 1.59770463 5.59409574 3.34687263 8.23944092 5.99893188 C 9.49719078 7.25255775 9.49719078 7.25255775 10.78034973 8.5315094 C 11.69169174 9.45004196 12.60303375 10.36857452 13.54199219 11.31494141 C 14.51750956 12.29102309 15.49346788 13.26666426 16.46983337 14.24189758 C 19.11657103 16.8880615 21.75709755 19.54034587 24.3965559 22.19376802 C 27.15697073 24.96668658 29.92305155 27.73394125 32.6885376 30.50180054 C 37.92336137 35.74284012 43.15306606 40.98895703 48.38095307 46.23691499 C 54.33345265 52.2117704 60.29163323 58.18094679 66.25029898 64.14965177 C 78.50653378 76.42679086 90.75561142 88.71104648 103 101 C 98.44988869 106.45223634 93.62839966 111.51997535 88.60786438 116.53930664 C 87.36224937 117.79043668 87.36224937 117.79043668 86.09147042 119.06684208 C 83.80214134 121.365237 81.51061841 123.66141706 79.21808589 125.95661592 C 76.7397343 128.43889557 74.26421174 130.92399413 71.78825378 133.40866089 C 65.81851197 139.39809051 59.84399097 145.38274171 53.86885408 151.36678839 C 51.05024444 154.18979105 48.23212072 157.0132787 45.41393089 159.83670044 C 36.03874815 169.22888307 26.66231299 178.61981274 17.28225422 188.00712585 C 14.85262937 190.43866034 12.4230099 192.87020019 9.9934082 195.30175781 C 9.08769772 196.20819391 9.08769772 196.20819391 8.16369005 197.13294184 C -1.61923456 206.92416846 -11.39360694 216.72388624 -21.16443553 226.52718222 C -31.2108912 236.6067471 -41.26489788 246.67872995 -51.32632571 256.74335003 C -56.96936379 262.38854895 -62.60909421 268.03696629 -68.24039268 273.69387817 C -73.03513635 278.51038113 -77.83671808 283.31993506 -82.64720144 288.12072015 C -85.09820404 290.56719404 -87.54593452 293.01671135 -89.98490524 295.47518539 C -92.63838415 298.14641374 -95.30402767 300.80490363 -97.97294617 303.46069336 C -98.73056565 304.22928208 -99.48818512 304.99787081 -100.26876277 305.7897501 C -110.53119015 315.93134997 -120.33012787 321.4037944 -134.92919922 321.37011719 C -146.3907108 321.10006078 -154.79299036 315.49331373 -162.74243164 307.57983398 C -163.55099861 306.78616173 -163.55099861 306.78616173 -164.37590027 305.97645569 C -166.14285578 304.23851153 -167.90211363 302.49305074 -169.66015625 300.74609375 C -170.5692767 299.84545543 -170.5692767 299.84545543 -171.49676323 298.92662239 C -174.70453191 295.74874566 -177.90656825 292.56522587 -181.10375977 289.37670898 C -184.38742006 286.10400132 -187.68920978 282.85025722 -190.99573612 279.60067654 C -193.55312989 277.08074522 -196.09680035 274.54728734 -198.63705254 272.01008797 C -199.84759009 270.80555791 -201.06307358 269.60597534 -202.28376961 268.41174126 C -212.08678681 258.80621133 -219.00943024 249.71368082 -219.3125 235.4375 C -219.20664842 220.90559005 -212.37973582 212.06817363 -202.50860596 202.26809692 C -201.64355871 201.40134083 -200.77851146 200.53458473 -199.88725066 199.6415633 C -197.49414402 197.24573786 -195.0966461 194.85446816 -192.69716668 192.46503544 C -190.10735477 189.88387741 -187.52334271 187.29692443 -184.93861389 184.7106781 C -180.46258628 180.23360286 -175.98291755 175.76019794 -171.50074005 171.28927994 C -165.02030694 164.82511545 -158.54541729 158.35542158 -152.07185814 151.88437401 C -141.56825362 141.38514445 -131.0601925 130.89038705 -120.54931641 120.3984375 C -110.34026504 110.20775007 -100.13332076 100.01495979 -89.92919922 89.81933594 C -89.29999405 89.19065621 -88.67078887 88.56197649 -88.02251688 87.91424586 C -84.86592597 84.76026507 -81.7093764 81.60624291 -78.55284739 78.45220017 C -52.37497081 52.29504991 -26.18985617 26.1451554 0 0 Z" stroke-linecap="round"/>
</g>
		<g transform="matrix(1 0 0 1 95.9476 -95.9798)">
<path style="stroke: none; stroke-width: 1; stroke-dasharray: none; stroke-linecap: butt; stroke-dashoffset: 0; stroke-linejoin: miter; stroke-miterlimit: 4; is-custom-font: none; font-file-url: none; fill: rgb(153,199,255); fill-rule: nonzero; opacity: 1;" transform=" translate(-71.9476, -125.0202)" d="M 0 0 C 3.04950005 1.36345696 5.15079583 2.90164102 7.50634384 5.26024818 C 8.18660338 5.93652563 8.86686292 6.61280307 9.56773639 7.30957377 C 10.30703804 8.05470111 11.0463397 8.79982845 11.80804443 9.5675354 C 12.59958774 10.35736986 13.39113104 11.14720431 14.20666051 11.96097314 C 16.86618669 14.61719675 19.51848677 17.28052111 22.17089844 19.94384766 C 24.07251407 21.84602724 25.97452177 23.747807 27.87702942 25.64909363 C 31.97654111 29.74755638 36.07237364 33.84966648 40.16573334 37.95427322 C 46.08405521 43.88884587 52.00788887 49.81789134 57.9330844 55.74560027 C 67.54605725 65.36295089 77.15455484 74.9847598 86.76025391 84.609375 C 96.09156992 93.9590477 105.42498321 103.30661853 114.76123047 112.65136719 C 115.33666972 113.22733189 115.91210897 113.80329659 116.50498578 114.39671476 C 119.39179458 117.28613363 122.27864472 120.17551119 125.16551542 123.06486821 C 149.11675678 147.03684461 173.06074152 171.0160571 197 195 C 188.24044045 213.54951358 157.17847626 226.91256571 139.33203125 233.58203125 C 121.08783466 240.03640164 102.62449202 244.34005408 83.4375 246.75 C 82.5182373 246.86585449 81.59897461 246.98170898 80.65185547 247.10107422 C 78.72120547 247.31890644 76.78464148 247.48861758 74.84585571 247.61499023 C 71.88315122 247.91158747 69.26010648 248.37264419 66.37609863 249.01760864 C 59.27448954 250.3157025 52.59742883 250.92791188 46.05093575 247.41955566 C 38.7875441 242.23917492 32.55769557 235.89469032 26.34156346 229.52984476 C 24.15758541 227.30792476 21.93766901 225.12372874 19.71705431 222.9385184 C 14.47043963 217.77499894 9.28371094 212.55648044 4.13354492 207.296875 C -1.14799189 201.90477835 -6.51227526 196.60726074 -11.92744058 191.34964859 C -16.60557153 186.80233634 -21.23038712 182.20530304 -25.8165074 177.56521118 C -28.54243866 174.8076354 -31.28240678 172.07047678 -34.07337761 169.37860489 C -52.15034701 151.8721573 -52.15034701 151.8721573 -53.10469055 141.17987061 C -53.11384105 135.87111494 -52.51030395 130.7751955 -51.49684429 125.5697279 C -50.8371305 122.15762283 -50.54124442 118.77277182 -50.23828125 115.3125 C -49.94649434 113.20593695 -49.63826336 111.10157696 -49.3125 109 C -49.13952393 107.84830322 -48.96654785 106.69660645 -48.78833008 105.51000977 C -42.37396046 64.76301249 -27.98163504 30.44298257 0 0 Z" stroke-linecap="round"/>
</g>
		<g transform="matrix(1 0 0 1 141.591 -141.799)">
<path style="stroke: none; stroke-width: 1; stroke-dasharray: none; stroke-linecap: butt; stroke-dashoffset: 0; stroke-linejoin: miter; stroke-miterlimit: 4; is-custom-font: none; font-file-url: none; fill: rgb(169,215,255); fill-rule: nonzero; opacity: 1;" transform=" translate(-88.9447, -112.1618)" d="M 0 0 C 4.52730273 2.64691427 7.86392564 6.05711543 11.54067612 9.76677513 C 12.34885135 10.57027039 13.15702658 11.37376565 13.98969197 12.20160925 C 16.69601918 14.89597002 19.39149636 17.60092787 22.08712387 20.30599022 C 24.02418079 22.24063256 25.96346665 24.1730352 27.90262985 26.10556602 C 32.62129215 30.81089506 37.33181611 35.52429071 42.03946343 40.24063753 C 45.86531731 44.07326833 49.69409145 47.90295877 53.52496719 51.73056984 C 54.07032297 52.27546592 54.61567875 52.820362 55.17756046 53.38177008 C 56.28546209 54.48871253 57.39337045 55.59564825 58.50128546 56.70257731 C 68.88717916 67.07991851 79.26386126 77.46643156 89.63741413 87.85610707 C 98.53944188 96.77154164 107.44931123 105.67907598 116.3649559 114.58089256 C 126.71916696 124.91905184 137.06849749 135.26205684 147.41007829 145.61285174 C 148.51262814 146.71635724 149.61518427 147.81985648 150.71774673 148.92334938 C 151.26022511 149.46629058 151.80270348 150.00923178 152.36162059 150.56862574 C 156.18566907 154.39526503 160.01318883 158.21841098 163.84206009 162.04022408 C 168.50698337 166.6967368 173.16653021 171.35855017 177.81925073 176.02725695 C 180.19347042 178.40936477 182.57078662 180.7881449 184.95310783 183.1621666 C 187.53396122 185.73485479 190.10544694 188.31655213 192.67470932 190.90080833 C 193.43130773 191.65071458 194.18790615 192.40062083 194.96743178 193.17325151 C 195.65394262 193.86758558 196.34045345 194.56191966 197.04776764 195.27729416 C 197.642195 195.87220858 198.23662237 196.467123 198.84906268 197.08006513 C 202.33964693 201.44302125 202.84964959 205.97726233 202.73653793 211.39046288 C 201.94278479 216.71994826 199.09909181 220.49844139 195.04122543 223.89827538 C 190.2173104 225.80540458 186.05500065 226.14980595 180.97872543 225.58577538 C 168.71521363 220.08833905 158.30487563 206.08231224 148.91646957 196.71639061 C 147.05799011 194.86582391 145.19933257 193.01543602 143.34051132 191.16521263 C 137.79274777 185.6417874 132.24976497 180.11357722 126.70768681 174.58444819 C 125.14078758 173.02127049 123.57376319 171.45821838 122.00669551 169.89520955 C 112.25522276 160.16895129 102.50534134 150.44110084 92.76022816 140.70847034 C 90.51170981 138.4628811 88.26317513 136.21730821 86.01461411 133.9717617 C 85.45582986 133.41372351 84.89704561 132.85568531 84.32132851 132.28073687 C 75.24998095 123.22206916 66.16838563 114.17374667 57.08260662 105.12955605 C 47.73790056 95.82727224 38.40264831 86.51558463 29.07651609 77.19467884 C 23.84638655 71.96795986 18.61218074 66.74547043 13.3672924 61.53355789 C 8.44012275 56.63731937 3.525812 51.72849349 -1.38001251 46.81086922 C -3.18205643 45.00860409 -4.98838866 43.21061505 -6.7992878 41.41724777 C -9.27045973 38.96870557 -11.72572512 36.50523276 -14.17763138 34.03742027 C -14.89746088 33.33147285 -15.61729039 32.62552544 -16.35893291 31.89818567 C -21.17228834 27.00751485 -24.26392454 22.47945751 -24.86111832 15.42171288 C -24.18797892 10.35894614 -23.12644643 6.89886458 -19.64627457 2.96077538 C -13.63715662 -1.60615427 -7.17433656 -2.81745035 0 0 Z" stroke-linecap="round"/>
</g>
		<g transform="matrix(1 0 0 1 -112.456 -11.6585)">
<path style="stroke: none; stroke-width: 1; stroke-dasharray: none; stroke-linecap: butt; stroke-dashoffset: 0; stroke-linejoin: miter; stroke-miterlimit: 4; is-custom-font: none; font-file-url: none; fill: rgb(121,166,255); fill-rule: nonzero; opacity: 1;" transform=" translate(21.4559, -29.3416)" d="M 0 0 C 2.90898118 2.09279222 5.46232791 4.4752095 8 7 C 6.450168 10.70044944 4.19605329 13.04581087 1.36669922 15.86035156 C 0.89823578 16.32910706 0.42977234 16.79786255 -0.05288696 17.28082275 C -1.59566695 18.82221432 -3.14539964 20.35640873 -4.6953125 21.890625 C -5.76906192 22.96064255 -6.84236933 24.03110381 -7.91525269 25.10198975 C -10.73520452 27.91431879 -13.56111154 30.72058889 -16.38830566 33.52563477 C -19.2742137 36.39105523 -22.15444257 39.26217168 -25.03515625 42.1328125 C -30.68456489 47.76079512 -36.34027825 53.38238884 -42 59 C -45.76562445 57.263234 -47.68746663 55.50867132 -50 52 C -51.06430061 48.59423805 -51.37894054 46.87015976 -49.9453125 43.578125 C -47.4627913 40.28803667 -44.48844749 38.67441846 -40.9375 36.75 C -28.99216297 29.87906736 -21.4167811 21.51515536 -14 10 C -12.85726764 8.24797352 -11.71185572 6.4976886 -10.5625 4.75 C -10.11003906 4.04359375 -9.65757812 3.3371875 -9.19140625 2.609375 C -6.73426045 -0.70978588 -3.86224472 -0.5721844 0 0 Z" stroke-linecap="round"/>
</g>
</g>
</g>
</svg>